<svg xmlns="http://www.w3.org/2000/svg" viewBox="0 0 24 24" fill="none" stroke="currentColor" stroke-width="2" stroke-linecap="round" stroke-linejoin="round">
  <path d="M7 19H4.338A1 1 0 0 1 3.21 18.662l2.25-3.899a1 1 0 0 1 1.866.236l1.203 6.265H7z"></path>
  <path d="M13.814 2.936A1 1 0 0 0 12.338 2H9.662a1 1 0 0 0-.854 1.662l2.25 3.899a1 1 0 0 0 1.866-.235l1.203-6.265"></path>
  <path d="M17 6a1 1 0 0 1 .883.527l2.239 3.898a1 1 0 0 1-.883 1.473h-3.118a1 1 0 0 1-.882-1.472l2.25-3.899A1 1 0 0 1 17 6z"></path>
</svg>